<svg xmlns="http://www.w3.org/2000/svg" xmlns:xlink="http://www.w3.org/1999/xlink" viewBox="0 0 64 64"><defs><style>.uuid-d9112ecb-10b2-48c7-a796-3b28a7165626{fill:none;}.uuid-f37aa643-5371-4c00-a03d-84c2e251d595{mask:url(#uuid-5662fe50-a40c-430a-854d-0e23db08ad1c);}.uuid-db7ebd2f-a1cb-4d18-b965-9d95c97f6f4a{fill:url(#uuid-506390f9-90a4-410b-a6ee-4c79ff0fc468);}.uuid-e1b0cc73-e778-450e-b227-58532e32f090{fill:url(#uuid-6b8d41ba-6de1-4f65-a89b-626274a4c507);}.uuid-e35f0835-5c45-474d-bca4-3d5e44bbf071{fill:url(#uuid-6cbdebce-5ee6-43a3-a223-504807ed072a);}.uuid-8dfbe302-ec1c-4292-9dd8-6f5b2e30efbe{fill:#fff;}.uuid-55c124b6-9ef6-4f9f-93c9-778b59305ce6{fill:url(#uuid-9a114718-d86e-40dc-b68d-b29e57dcbd59);}.uuid-f35ef149-96df-43a3-b4d7-c0742fd2e149{mask:url(#uuid-d753f283-d479-40d4-9281-91da4c295fea);}.uuid-a9e1a3bb-a2e6-4fea-ab44-092bd6cad906{fill:url(#uuid-822be5c0-1859-4ddf-96c2-0b5697f74438);}.uuid-609910eb-b52b-4540-bd5e-cc4bfa2e487c{fill:url(#uuid-6e8c264c-2e76-4af8-b5f1-d1f2743478a3);}</style><linearGradient id="uuid-6e8c264c-2e76-4af8-b5f1-d1f2743478a3" x1="32" y1="-.00051" x2="32" y2="63.99933" gradientTransform="matrix(1, 0, 0, 1, 0, 0)" gradientUnits="userSpaceOnUse"><stop offset=".00038" stop-color="#4551e0" stop-opacity="0"></stop><stop offset=".0727" stop-color="#4551e0" stop-opacity=".01861"></stop><stop offset=".14767" stop-color="#4551e0" stop-opacity=".07416"></stop><stop offset=".22388" stop-color="#4551e0" stop-opacity=".16679"></stop><stop offset=".30094" stop-color="#4551e0" stop-opacity=".2966"></stop><stop offset=".37866" stop-color="#4551e0" stop-opacity=".46375"></stop><stop offset=".45584" stop-color="#4551e0" stop-opacity=".66526"></stop><stop offset=".50118" stop-color="#4551e0" stop-opacity=".8"></stop><stop offset=".60399" stop-color="#4551e0" stop-opacity=".78139"></stop><stop offset=".71055" stop-color="#4551e0" stop-opacity=".72587"></stop><stop offset=".81882" stop-color="#4551e0" stop-opacity=".63336"></stop><stop offset=".92754" stop-color="#4551e0" stop-opacity=".50472"></stop><stop offset=".99962" stop-color="#4551e0" stop-opacity=".4"></stop></linearGradient><linearGradient id="uuid-506390f9-90a4-410b-a6ee-4c79ff0fc468" x1="38.55088" y1="3.78281" x2="9.00924" y2="54.95044" gradientTransform="matrix(1, 0, 0, 1, 0, 0)" gradientUnits="userSpaceOnUse"><stop offset=".00475" stop-color="#8087ff"></stop><stop offset=".05952" stop-color="#8087ff" stop-opacity=".79702"></stop><stop offset=".12357" stop-color="#8087ff" stop-opacity=".58812"></stop><stop offset=".18847" stop-color="#8087ff" stop-opacity=".40794"></stop><stop offset=".25289" stop-color="#8087ff" stop-opacity=".26085"></stop><stop offset=".31675" stop-color="#8087ff" stop-opacity=".14665"></stop><stop offset=".37988" stop-color="#8087ff" stop-opacity=".0652"></stop><stop offset=".44198" stop-color="#8087ff" stop-opacity=".01636"></stop><stop offset=".50186" stop-color="#8087ff" stop-opacity="0"></stop></linearGradient><radialGradient id="uuid-822be5c0-1859-4ddf-96c2-0b5697f74438" cx="13.51227" cy="43.92688" fx="13.51227" fy="43.92688" r="50.32071" gradientTransform="translate(32.63428 .00196) scale(1.0825)" gradientUnits="userSpaceOnUse"><stop offset="0" stop-color="#858dff"></stop><stop offset=".51514" stop-color="#5864fa"></stop></radialGradient><linearGradient id="uuid-6cbdebce-5ee6-43a3-a223-504807ed072a" x1="16.5" y1="31.998" x2="47.5" y2="31.998" gradientTransform="matrix(1, 0, 0, 1, 0, 0)" gradientUnits="userSpaceOnUse"><stop offset="0" stop-color="gray"></stop><stop offset=".0502" stop-color="#979797"></stop><stop offset=".14189" stop-color="#bcbcbc"></stop><stop offset=".23367" stop-color="#d9d9d9"></stop><stop offset=".32445" stop-color="#eee"></stop><stop offset=".41379" stop-color="#fafafa"></stop><stop offset=".5" stop-color="#fff"></stop><stop offset=".56365" stop-color="#fafafa"></stop><stop offset=".62966" stop-color="#eee"></stop><stop offset=".69674" stop-color="#d9d9d9"></stop><stop offset=".76458" stop-color="#bcbcbc"></stop><stop offset=".83306" stop-color="#979797"></stop><stop offset=".902" stop-color="#696969"></stop><stop offset=".97009" stop-color="#333"></stop><stop offset="1" stop-color="#1a1a1a"></stop></linearGradient><mask id="uuid-d753f283-d479-40d4-9281-91da4c295fea" x="16.5" y="-.00051" width="31" height="63.99985" maskUnits="userSpaceOnUse"><path class="uuid-e35f0835-5c45-474d-bca4-3d5e44bbf071" d="M33.69048,63.2342l12.06879-13.7401c1.12199-1.27736,1.74074-2.91939,1.74074-4.61954V6.57907L32.90221,.18946c-.57512-.25174-1.22929-.25174-1.80441,0l-14.59779,6.38962V44.87456c0,1.70015,.61875,3.34218,1.74074,4.61954l12.06879,13.7401c.9055,1.03092,2.50379,.99866,3.38095,0Z"></path></mask><linearGradient id="uuid-6b8d41ba-6de1-4f65-a89b-626274a4c507" x1="38.61994" y1="3.82268" x2="9.14053" y2="54.88251" gradientTransform="matrix(1, 0, 0, 1, 0, 0)" gradientUnits="userSpaceOnUse"><stop offset="0" stop-color="#e63a00"></stop><stop offset=".03093" stop-color="#e63a00" stop-opacity=".88336"></stop><stop offset=".09894" stop-color="#e63a00" stop-opacity=".6517"></stop><stop offset=".1678" stop-color="#e63a00" stop-opacity=".45209"></stop><stop offset=".23618" stop-color="#e63a00" stop-opacity=".28904"></stop><stop offset=".30392" stop-color="#e63a00" stop-opacity=".16252"></stop><stop offset=".3709" stop-color="#e63a00" stop-opacity=".07227"></stop><stop offset=".43681" stop-color="#e63a00" stop-opacity=".01813"></stop><stop offset=".50036" stop-color="#e63a00" stop-opacity="0"></stop></linearGradient><linearGradient id="uuid-9a114718-d86e-40dc-b68d-b29e57dcbd59" x1="4.25" y1="31.99999" x2="32" y2="31.99999" gradientTransform="matrix(1, 0, 0, 1, 0, 0)" gradientUnits="userSpaceOnUse"><stop offset=".72165" stop-color="#fff"></stop><stop offset=".99962" stop-color="#333"></stop></linearGradient><mask id="uuid-5662fe50-a40c-430a-854d-0e23db08ad1c" x="4" y=".00066" width="28" height="63.99868" maskUnits="userSpaceOnUse"><g><path class="uuid-e1b0cc73-e778-450e-b227-58532e32f090" d="M31.09779,.18946L8.44314,10.10565c-2.54731,1.11497-4.19314,3.63197-4.19314,6.41261V52.05896l26.84779,11.75157c.28757,.12587,.59488,.1888,.90221,.1888V.00066c-.30733,0-.61464,.06293-.90221,.1888Z"></path><path class="uuid-55c124b6-9ef6-4f9f-93c9-778b59305ce6" d="M31.09779,.18946L8.44314,10.10565c-2.54731,1.11497-4.19314,3.63197-4.19314,6.41261V52.05896l26.84779,11.75157c.28757,.12587,.59488,.1888,.90221,.1888V.00066c-.30733,0-.61464,.06293-.90221,.1888Z"></path></g></mask></defs><g id="uuid-8ef96c93-b911-430f-aaf9-d8969dfbec52"><path class="uuid-a9e1a3bb-a2e6-4fea-ab44-092bd6cad906" d="M4,16.72132V52.05835l27.09921,11.75358c.57376,.24888,1.22642,.25029,1.80018,.00141l22.71627-9.85377c2.6619-1.15467,4.38435-3.77935,4.38435-6.68089V11.94226L32.90079,.18806c-.57376-.24888-1.2283-.24842-1.80206,.00047L8.38435,10.04043c-2.6619,1.15467-4.38435,3.77935-4.38435,6.68089Z"></path><g class="uuid-f35ef149-96df-43a3-b4d7-c0742fd2e149"><path class="uuid-609910eb-b52b-4540-bd5e-cc4bfa2e487c" d="M30.30952,63.23419c.42719,.48635,1.04315,.76514,1.69048,.76514s1.26329-.27879,1.69048-.76514l12.06878-13.74009c1.12199-1.27736,1.74074-2.91939,1.74074-4.61954V6.57907L32.90079,.18806c-.57512-.25174-1.22694-.25127-1.80206,.00047l-14.59873,6.33335V44.87456c0,1.70015,.61875,3.34218,1.74074,4.61954l12.06878,13.74009Z"></path></g><g class="uuid-f37aa643-5371-4c00-a03d-84c2e251d595"><path class="uuid-db7ebd2f-a1cb-4d18-b965-9d95c97f6f4a" d="M31.09873,.18853L8.36545,10.04786c-2.65038,1.1494-4.36545,3.76258-4.36545,6.65145V52.05835l27.09921,11.75358c.28757,.12587,.59347,.1874,.90079,.1874V.00066c-.30733,0-.6137,.062-.90127,.18787Z"></path></g></g><g id="uuid-d6f30754-996a-45ca-af27-089a9bc40825"><rect class="uuid-d9112ecb-10b2-48c7-a796-3b28a7165626" width="64" height="64"></rect><path class="uuid-8dfbe302-ec1c-4292-9dd8-6f5b2e30efbe" d="M44.63837,43.44825c.086-.04241,.18684-.0424,.27284,.00001l5.24317,2.58601c.05477,.02701,.08945,.08279,.08944,.14386s-.0347,.11684-.08947,.14384l-11.03079,5.43753c-.30546,.15058-.66357,.15058-.96904,0l-11.03137-5.43753c-.05478-.027-.08947-.08277-.08947-.14384s.03467-.11685,.08945-.14386l5.24376-2.58602c.086-.04241,.18683-.04241,.27282,0l5.60833,2.76544c.24651,.12155,.53552,.12155,.78203,0l5.60832-2.76544Zm-17.51516-6.5386c-.05478,.02701-.08947,.08279-.08947,.14386s.0347,.11685,.08948,.14385l11.12495,5.48287c.24642,.12145,.5353,.12145,.78173,0l11.12436-5.48286c.05478-.027,.08948-.08277,.08948-.14385s-.03468-.11685-.08946-.14386l-11.37885-5.60991c-.08598-.04239-.18678-.04239-.27277,0l-11.37945,5.60991Zm-3.25077-8.57788c-3.34289-8.15329,7.35292-12.68159,11.71031-5.60803,.06564,.10656,.20078,.14726,.31419,.09432,4.72679-2.20667,8.80532,1.17815,7.66595,6.03616-.03929,.16752,.04202,.34032,.19635,.41641l8.06283,3.97518c.04167,.02054,.09134,.01594,.12852-.01191s.0556-.07423,.04756-.11998c-.40054-2.28085-1.5451-4.30654-3.57681-5.93994-.05268-.04235-.08567-.10446-.09129-.17181-.4578-5.4838-5.083-9.58021-10.86296-8.98565-.06973,.00717-.1392-.01567-.19111-.06277-6.90937-6.26903-17.38372-1.89791-18.20706,7.4947-.00751,.08562-.05909,.16118-.13604,.19948-13.15289,6.5463-5.94523,24.6288,7.89849,16.2417-12.34584,1.63767-11.79714-12.52265-2.95893-13.55787Z"></path></g></svg>